<?xml version="1.0" encoding="UTF-8" standalone="no"?>
<svg
   version="1.1"
   viewBox="-10 0 2048 2048"
   id="svg1"
   sodipodi:docname="bookmark.svg"
   inkscape:export-batch-path="/Users/gmtrucco/Downloads"
   width="2048"
   height="2048"
   inkscape:export-filename="bookmark.png"
   inkscape:export-xdpi="96"
   inkscape:export-ydpi="96"
   inkscape:version="1.5-dev (4c013c29, 2025-03-05)"
   xmlns:inkscape="http://www.inkscape.org/namespaces/inkscape"
   xmlns:sodipodi="http://sodipodi.sourceforge.net/DTD/sodipodi-0.dtd"
   xmlns="http://www.w3.org/2000/svg"
   xmlns:svg="http://www.w3.org/2000/svg">
  <defs
     id="defs1">
    <rect
       x="760.1167"
       y="185.88007"
       width="448.10373"
       height="195.83793"
       id="rect1" />
    <inkscape:path-effect
       effect="fillet_chamfer"
       id="path-effect2"
       is_visible="true"
       lpeversion="1"
       nodesatellites_param="F,0,0,1,0,23.514075,0,1 @ F,0,0,1,0,43.310828,0,1 @ F,0,0,1,0,31.999341,0,1 @ F,0,0,1,0,26.979618,0,1 | F,0,0,1,0,17.542675,0,1 @ F,0,0,1,0,13.040533,0,1 @ F,0,0,1,0,0,0,1 @ F,0,0,1,0,0,0,1 @ F,0,0,1,0,0,0,1 | F,0,0,1,0,17.542675,0,1 @ F,0,0,1,0,15.600224,0,1 @ F,0,0,1,0,12.787731,0,1 | F,0,0,1,0,13.603017,0,1 @ F,0,0,1,0,0,0,1 @ F,0,0,1,0,13.402408,0,1 | F,0,0,1,0,18.458013,0,1 @ F,0,0,1,0,0,0,1 @ F,0,0,1,0,0,0,1 @ F,0,0,1,0,0,0,1 @ F,0,0,1,0,15.864973,0,1 @ F,0,0,1,0,11.423567,0,1 @ F,0,0,1,0,14.154568,0,1"
       radius="0"
       unit="px"
       method="auto"
       mode="F"
       chamfer_steps="1"
       flexible="false"
       use_knot_distance="true"
       apply_no_radius="true"
       apply_with_radius="true"
       only_selected="false"
       hide_knots="false" />
    <inkscape:path-effect
       effect="fillet_chamfer"
       id="path-effect2-6"
       is_visible="true"
       lpeversion="1"
       nodesatellites_param="F,0,0,1,0,23.514075,0,1 @ F,0,0,1,0,43.310828,0,1 @ F,0,0,1,0,31.999341,0,1 @ F,0,0,1,0,26.979618,0,1 | F,0,0,1,0,17.542675,0,1 @ F,0,0,1,0,13.040533,0,1 @ F,0,0,1,0,0,0,1 @ F,0,0,1,0,0,0,1 @ F,0,0,1,0,0,0,1 | F,0,0,1,0,17.542675,0,1 @ F,0,0,1,0,15.600224,0,1 @ F,0,0,1,0,12.787731,0,1 | F,0,0,1,0,13.603017,0,1 @ F,0,0,1,0,0,0,1 @ F,0,0,1,0,13.402408,0,1 | F,0,0,1,0,18.458013,0,1 @ F,0,0,1,0,0,0,1 @ F,0,0,1,0,0,0,1 @ F,0,0,1,0,0,0,1 @ F,0,0,1,0,15.864973,0,1 @ F,0,0,1,0,11.423567,0,1 @ F,0,0,1,0,14.154568,0,1"
       radius="0"
       unit="px"
       method="auto"
       mode="F"
       chamfer_steps="1"
       flexible="false"
       use_knot_distance="true"
       apply_no_radius="true"
       apply_with_radius="true"
       only_selected="false"
       hide_knots="false" />
  </defs>
  <sodipodi:namedview
     id="namedview1"
     pagecolor="#ffffff"
     bordercolor="#000000"
     borderopacity="0.25"
     inkscape:showpageshadow="2"
     inkscape:pageopacity="0.0"
     inkscape:pagecheckerboard="0"
     inkscape:deskcolor="#d1d1d1"
     showgrid="false"
     inkscape:zoom="0.21302973"
     inkscape:cx="1833.0775"
     inkscape:cy="629.02019"
     inkscape:window-width="2560"
     inkscape:window-height="1387"
     inkscape:window-maximized="1"
     inkscape:current-layer="svg1" />
  <path
     fill="currentColor"
     d="m 1773.3659,1717.4181 -606.5991,-48.0569 q -33.1625,18.9315 -64.9434,28.7613 -31.7808,9.8299 -61.4889,9.8299 -30.3991,0 -65.28893,-9.8299 -34.8898,-9.8298 -74.27038,-28.7613 l -610.7444,48.0569 V 705.30886 l 129.19593,-8.00949 49.74389,-102.6672 q 81.5247,-22.57221 154.41332,-33.85833 72.8886,-11.28611 136.45024,-11.28611 110.54197,0 173.06728,30.21765 62.5253,30.21765 98.45145,101.57499 32.4718,-69.90107 98.106,-100.84685 65.6343,-30.94579 180.3216,-30.94579 58.7254,0 128.8505,11.28611 70.125,11.28612 152.3406,33.85833 l 46.9804,94.6577 135.4139,8.0095 z m -34.5444,-38.5911 V 729.33736 l -84.9792,-5.09696 33.8535,58.97903 v 835.90027 l -553.4007,-36.4067 q -40.0714,35.6786 -102.2513,35.6786 -61.489,0 -100.86957,-35.6786 l -556.1643,36.4067 V 783.21943 l 25.56283,-51.69767 -76.68849,4.36883 V 1678.827 l 587.94511,-45.8727 q 34.54437,19.6598 66.32518,29.4895 31.78084,9.8299 61.48904,9.8299 27.6355,0 56.6528,-9.8299 29.0172,-9.8297 60.1071,-29.4895 z M 409.5543,790.5008 v 759.446 l 67.70695,-139.0739 V 659.43629 Z M 1585.4446,662.34883 v 748.52407 l 68.3977,135.4333 V 798.5103 Z M 435.80801,1582.713 940.84665,1540.481 q 22.10839,29.8537 73.92495,42.232 -9.6724,-91.7453 -67.36152,-131.4286 -57.68909,-39.6835 -181.35792,-39.6835 -57.34365,0 -123.32339,8.3736 -65.97974,8.3735 -140.59557,25.1208 z m 1197.30769,0 -66.3251,-135.4334 q -80.143,-18.2034 -148.8862,-26.941 -68.7433,-8.7377 -125.3961,-8.7377 -243.8832,0 -243.8832,171.1121 51.1257,-8.7377 78.0703,-42.9601 z M 511.80562,1405.7758 q 80.14293,-15.2909 141.97735,-22.5722 61.83441,-7.2813 105.36031,-7.2813 177.55804,0 255.62832,90.2889 V 788.31639 q 0,-101.93907 -60.1072,-152.54453 -60.1072,-50.60545 -181.01248,-50.60545 -62.17986,0 -127.46871,9.10169 -65.28886,9.10171 -134.37759,27.30511 z M 1551.5911,620.11693 q -75.9977,-17.47526 -140.2502,-26.2129 -64.2525,-8.73762 -116.7599,-8.73762 -127.8142,0 -193.4485,55.33834 -52.5074,43.68817 -52.5074,149.26791 v 679.35104 q 47.6713,-53.154 101.5604,-73.1776 53.8892,-20.0238 148.5408,-20.0238 62.8708,0 126.0869,7.6454 63.2162,7.6455 126.7779,23.6644 z"
     id="path1"
     style="fill:#f9f1be;fill-opacity:1;stroke-width:1" />
</svg>
