<?xml version="1.0" standalone="no"?>
<!DOCTYPE svg PUBLIC "-//W3C//DTD SVG 1.1//EN" "http://www.w3.org/Graphics/SVG/1.1/DTD/svg11.dtd" >
<svg xmlns="http://www.w3.org/2000/svg" xmlns:xlink="http://www.w3.org/1999/xlink" version="1.1" viewBox="-10 0 1836 2048">
   <path fill="currentColor"
d="M173 1441v-1185q0 -41 29 -69.5t70 -28.5h1283q41 0 69.5 28.5t28.5 69.5v1283q0 41 -28.5 70t-69.5 29h-1185zM864 1145h-247v444h247v-444zM1259 1589h296q25 0 37 -12.5t12 -36.5v-1284q0 -49 -49 -49h-148v592q0 41 -29 70t-70 29h-790q-41 0 -69.5 -29t-28.5 -70
v-592h-148q-50 0 -50 49v1165l168 168h178v-444q0 -50 49 -50h592q50 0 50 50v444zM1357 207h-888v592q0 24 12.5 36.5t36.5 12.5l790 1q49 0 49 -50v-592z" />
</svg>
