<?xml version="1.0" encoding="UTF-8" standalone="no"?>
<svg
   version="1.1"
   viewBox="-10 0 2048 2048"
   id="svg1"
   sodipodi:docname="mail.svg"
   inkscape:export-batch-path="/Users/gmtrucco/Downloads"
   inkscape:version="1.5-dev (4c013c29, 2025-03-05)"
   inkscape:export-filename="mail.png"
   inkscape:export-xdpi="96"
   inkscape:export-ydpi="96"
   width="2048"
   height="2048"
   xmlns:inkscape="http://www.inkscape.org/namespaces/inkscape"
   xmlns:sodipodi="http://sodipodi.sourceforge.net/DTD/sodipodi-0.dtd"
   xmlns="http://www.w3.org/2000/svg"
   xmlns:svg="http://www.w3.org/2000/svg">
  <defs
     id="defs1">
    <inkscape:path-effect
       effect="fillet_chamfer"
       id="path-effect2"
       is_visible="true"
       lpeversion="1"
       nodesatellites_param="F,0,0,1,0,23.514075,0,1 @ F,0,0,1,0,43.310828,0,1 @ F,0,0,1,0,31.999341,0,1 @ F,0,0,1,0,26.979618,0,1 | F,0,0,1,0,17.542675,0,1 @ F,0,0,1,0,13.040533,0,1 @ F,0,0,1,0,0,0,1 @ F,0,0,1,0,0,0,1 @ F,0,0,1,0,0,0,1 | F,0,0,1,0,17.542675,0,1 @ F,0,0,1,0,15.600224,0,1 @ F,0,0,1,0,12.787731,0,1 | F,0,0,1,0,13.603017,0,1 @ F,0,0,1,0,0,0,1 @ F,0,0,1,0,13.402408,0,1 | F,0,0,1,0,18.458013,0,1 @ F,0,0,1,0,0,0,1 @ F,0,0,1,0,0,0,1 @ F,0,0,1,0,0,0,1 @ F,0,0,1,0,15.864973,0,1 @ F,0,0,1,0,11.423567,0,1 @ F,0,0,1,0,14.154568,0,1"
       radius="0"
       unit="px"
       method="auto"
       mode="F"
       chamfer_steps="1"
       flexible="false"
       use_knot_distance="true"
       apply_no_radius="true"
       apply_with_radius="true"
       only_selected="false"
       hide_knots="false" />
    <inkscape:path-effect
       effect="fillet_chamfer"
       id="path-effect1"
       is_visible="true"
       lpeversion="1"
       nodesatellites_param="F,0,0,1,0,0,0,1 @ F,0,0,1,0,0,0,1 @ F,0,0,1,0,0,0,1 @ F,0,0,1,0,0,0,1 @ F,0,0,1,0,0,0,1 @ F,0,0,1,0,0,0,1 | F,0,0,1,0,0,0,1 @ F,0,0,1,0,0,0,1 @ F,0,0,1,0,0,0,1 @ F,0,0,1,0,0,0,1 @ F,0,0,1,0,0,0,1 | F,0,0,1,0,0,0,1 @ F,0,0,1,0,0,0,1 @ F,0,0,1,0,0,0,1 | F,0,0,1,0,0,0,1 @ F,0,0,1,0,0,0,1 @ F,0,0,1,0,0,0,1 | F,0,0,1,0,0,0,1 @ F,0,0,1,0,0,0,1 @ F,0,0,1,0,0,0,1 @ F,0,0,1,0,0,0,1 @ F,0,0,1,0,0,0,1 @ F,0,0,1,0,0,0,1 @ F,0,0,1,0,0,0,1"
       radius="0"
       unit="px"
       method="auto"
       mode="F"
       chamfer_steps="1"
       flexible="false"
       use_knot_distance="true"
       apply_no_radius="true"
       apply_with_radius="true"
       only_selected="false"
       hide_knots="false" />
  </defs>
  <sodipodi:namedview
     id="namedview1"
     pagecolor="#ffffff"
     bordercolor="#000000"
     borderopacity="0.25"
     inkscape:showpageshadow="2"
     inkscape:pageopacity="0.0"
     inkscape:pagecheckerboard="0"
     inkscape:deskcolor="#d1d1d1"
     showgrid="false"
     inkscape:zoom="0.61328124"
     inkscape:cx="1522.1402"
     inkscape:cy="1216.4077"
     inkscape:window-width="2560"
     inkscape:window-height="1387"
     inkscape:window-maximized="1"
     inkscape:current-layer="svg1"
     showguides="true"
     inkscape:document-units="pc" />
  <path
     id="path1"
     style="fill:#f9f1da;fill-opacity:1;stroke-width:1.34048"
     d="M 173,408.83829 V 1608.6892 A 43.310828,43.310828 45 0 0 216.31083,1652 H 2115.0007 A 31.999341,31.999341 135 0 0 2147,1620.0007 V 412.30384 a 26.979618,26.979618 45 0 0 -26.9796,-26.97962 H 196.51408 A 23.514075,23.514075 135 0 0 173,408.83829 Z m 103.58554,39.54052 H 2045.9166 a 4.662877,4.662877 70.324577 0 1 2.9566,8.26857 L 1195,1156.8008 c -9.3333,7.8115 -21,11.7168 -35,11.7168 -14,0 -25.6667,-3.9053 -35,-11.7168 L 272.62083,459.48666 a 6.2614879,6.2614879 109.64295 0 1 3.96471,-11.10785 z m -33.21051,40.69468 624.97981,534.48481 a 12.976525,12.976525 90.782924 0 1 -0.27264,19.9507 l -628.09737,508.1028 a 6.1033638,6.1033638 25.51434 0 1 -9.94196,-4.7451 V 495.21445 a 8.0803854,8.0803854 155.26858 0 1 13.33216,-6.14096 z m 1845.58207,2.20131 v 1068.3796 l -631.2645,-521.7303 a 11.299029,11.299029 89.440319 0 1 -0.1687,-17.2765 l 621.1192,-534.10665 a 6.2433806,6.2433806 24.653717 0 1 10.314,4.73385 z M 929.88231,1073.1505 1089,1205.2578 c 20.0659,16.6597 43.6667,25.1074 71,25.1074 27.3333,0 50.6667,-8.3685 70,-25.1074 l 159.5738,-136.276 a 19.040081,19.040081 179.30513 0 1 24.3749,-0.2956 l 631.1442,513.0554 a 4.0573695,4.0573695 109.55378 0 1 -2.5593,7.2057 l -1763.33616,0 a 5.0176507,5.0176507 70.4811 0 1 -3.16029,-8.915 l 625.3069,-507.047 a 22.495593,22.495593 0.33165523 0 1 28.53826,0.1652 z"
     sodipodi:nodetypes="ccccccccscccccccccccssccccc"
     transform="matrix(0.7460025,0,0,0.7460025,157.35047,383.18347)"
     inkscape:original-d="M 173,385.32422 V 1652 H 2147 V 385.32422 Z m 86.04287,63.05459 H 2058.9571 L 1195,1156.8008 c -9.3333,7.8115 -21,11.7168 -35,11.7168 -14,0 -25.6667,-3.9053 -35,-11.7168 z m -29,29.29297 650.16789,556.02572 -650.16789,525.9569 z m 1858.91423,0 V 1559.6544 L 1447.3619,1029.3859 Z M 915.68096,1061.3599 1089,1205.2578 c 20.0659,16.6597 43.6667,25.1074 71,25.1074 27.3333,0 50.6667,-8.3685 70,-25.1074 l 171.6381,-146.5789 652.319,530.2684 H 265.04287 Z"
     inkscape:path-effect="#path-effect2" />
</svg>
