<?xml version="1.0" encoding="UTF-8" standalone="no"?>
<svg
   version="1.1"
   viewBox="-10 0 2048 2048"
   id="svg1"
   sodipodi:docname="mail.svg"
   inkscape:export-batch-path="/Users/gmtrucco/Downloads"
   inkscape:version="1.5-dev (4c013c29, 2025-03-05)"
   inkscape:export-filename="mail.png"
   inkscape:export-xdpi="96"
   inkscape:export-ydpi="96"
   width="2048"
   height="2048"
   xmlns:inkscape="http://www.inkscape.org/namespaces/inkscape"
   xmlns:sodipodi="http://sodipodi.sourceforge.net/DTD/sodipodi-0.dtd"
   xmlns="http://www.w3.org/2000/svg"
   xmlns:svg="http://www.w3.org/2000/svg">
  <defs
     id="defs1">
    <inkscape:path-effect
       effect="fillet_chamfer"
       id="path-effect2"
       is_visible="true"
       lpeversion="1"
       nodesatellites_param="F,0,0,1,0,23.514075,0,1 @ F,0,0,1,0,43.310828,0,1 @ F,0,0,1,0,31.999341,0,1 @ F,0,0,1,0,26.979618,0,1 | F,0,0,1,0,17.542675,0,1 @ F,0,0,1,0,13.040533,0,1 @ F,0,0,1,0,0,0,1 @ F,0,0,1,0,0,0,1 @ F,0,0,1,0,0,0,1 | F,0,0,1,0,17.542675,0,1 @ F,0,0,1,0,15.600224,0,1 @ F,0,0,1,0,12.787731,0,1 | F,0,0,1,0,13.603017,0,1 @ F,0,0,1,0,0,0,1 @ F,0,0,1,0,13.402408,0,1 | F,0,0,1,0,18.458013,0,1 @ F,0,0,1,0,0,0,1 @ F,0,0,1,0,0,0,1 @ F,0,0,1,0,0,0,1 @ F,0,0,1,0,15.864973,0,1 @ F,0,0,1,0,11.423567,0,1 @ F,0,0,1,0,14.154568,0,1"
       radius="0"
       unit="px"
       method="auto"
       mode="F"
       chamfer_steps="1"
       flexible="false"
       use_knot_distance="true"
       apply_no_radius="true"
       apply_with_radius="true"
       only_selected="false"
       hide_knots="false" />
    <inkscape:path-effect
       effect="fillet_chamfer"
       id="path-effect1"
       is_visible="true"
       lpeversion="1"
       nodesatellites_param="F,0,0,1,0,0,0,1 @ F,0,0,1,0,0,0,1 @ F,0,0,1,0,0,0,1 @ F,0,0,1,0,0,0,1 @ F,0,0,1,0,0,0,1 @ F,0,0,1,0,0,0,1 | F,0,0,1,0,0,0,1 @ F,0,0,1,0,0,0,1 @ F,0,0,1,0,0,0,1 @ F,0,0,1,0,0,0,1 @ F,0,0,1,0,0,0,1 | F,0,0,1,0,0,0,1 @ F,0,0,1,0,0,0,1 @ F,0,0,1,0,0,0,1 | F,0,0,1,0,0,0,1 @ F,0,0,1,0,0,0,1 @ F,0,0,1,0,0,0,1 | F,0,0,1,0,0,0,1 @ F,0,0,1,0,0,0,1 @ F,0,0,1,0,0,0,1 @ F,0,0,1,0,0,0,1 @ F,0,0,1,0,0,0,1 @ F,0,0,1,0,0,0,1 @ F,0,0,1,0,0,0,1"
       radius="0"
       unit="px"
       method="auto"
       mode="F"
       chamfer_steps="1"
       flexible="false"
       use_knot_distance="true"
       apply_no_radius="true"
       apply_with_radius="true"
       only_selected="false"
       hide_knots="false" />
  </defs>
  <sodipodi:namedview
     id="namedview1"
     pagecolor="#ffffff"
     bordercolor="#000000"
     borderopacity="0.25"
     inkscape:showpageshadow="2"
     inkscape:pageopacity="0.0"
     inkscape:pagecheckerboard="0"
     inkscape:deskcolor="#d1d1d1"
     showgrid="false"
     inkscape:zoom="0.30664062"
     inkscape:cx="1521.3249"
     inkscape:cy="1216.4077"
     inkscape:window-width="2560"
     inkscape:window-height="1387"
     inkscape:window-maximized="1"
     inkscape:current-layer="svg1"
     showguides="true"
     inkscape:document-units="pc" />
  <path
     id="path1"
     style="fill:#f9f1da;fill-opacity:1;stroke-width:1.34048"
     d="M 173,408.83829 V 1608.6892 A 43.310828,43.310828 45 0 0 216.31083,1652 H 2115.0007 A 31.999341,31.999341 135 0 0 2147,1620.0007 V 412.30384 a 26.979618,26.979618 45 0 0 -26.9796,-26.97962 H 196.51408 A 23.514075,23.514075 135 0 0 173,408.83829 Z m 95.54267,31.49765 H 2053.9595 a 4.6701739,4.6701739 70.296156 0 1 2.9648,8.27858 L 1195,1156.8008 c -9.3333,7.8115 -21,11.7168 -35,11.7168 -14,0 -25.6667,-3.9053 -35,-11.7168 L 264.56682,451.4574 a 6.271399,6.271399 109.67166 0 1 3.97585,-11.12146 z m -33.06522,40.52256 635.42914,529.448 a 12.959802,12.959802 90.083589 0 1 -0.0291,19.9374 L 231.84823,1559.5402 A 6.0127701,6.0127701 25.182833 0 1 222,1554.9096 V 487.17158 a 8.217307,8.217307 154.90076 0 1 13.47745,-6.31308 z M 2097,483.23193 V 1567.6973 l -644.7287,-540.4256 a 11.234168,11.234168 90.000052 0 1 0,-17.2192 L 2086.575,478.36737 A 6.3474744,6.3474744 25.014818 0 1 2097,483.23193 Z M 926.76232,1060.2554 1089,1205.2578 c 19.4456,17.3798 43.6667,25.1074 71,25.1074 27.3333,0 50.6667,-8.3685 70,-25.1074 l 165.1414,-146.7637 a 18.380247,18.380247 179.17123 0 1 24.0171,-0.3475 l 634.0868,531.5052 a 4.1545041,4.1545041 109.98523 0 1 -2.6689,7.3384 H 271.15457 a 5.1416932,5.1416932 70.036282 0 1 -3.30003,-9.0846 l 630.99079,-528.1038 a 21.339847,21.339847 0.93090191 0 1 27.91699,0.4536 z"
     sodipodi:nodetypes="ccccccccscccccccccccssccccc"
     transform="matrix(0.7460025,0,0,0.7460025,157.35047,383.18347)"
     inkscape:original-d="M 173,385.32422 V 1652 H 2147 V 385.32422 Z m 78,55.01172 h 1816 l -872,716.46486 c -9.3333,7.8115 -21,11.7168 -35,11.7168 -14,0 -25.6667,-3.9053 -35,-11.7168 z M 222,469.62891 882.89172,1020.2927 222,1567.6973 Z m 1875,0 V 1567.6973 l -655,-549.0352 z m -1184,578.32619 176,157.3027 c 19.4456,17.3798 43.6667,25.1074 71,25.1074 27.3333,0 50.6667,-8.3685 70,-25.1074 l 177,-157.3027 655,549.0351 H 257 Z"
     inkscape:path-effect="#path-effect2" />
</svg>
